<svg fill="none" height="100%" width="100%" viewBox="0 0 200 200" xmlns:xlink="http://www.w3.org/1999/xlink" xmlns="http://www.w3.org/2000/svg"><g id="i0"><g transform="translate(69.15,105.439)"><animateTransform repeatCount="indefinite" type="translate" attributeName="transform" dur="2.002s" begin="0s" calcMode="spline" values="69.15 105.439; 92.65 104.439; 110.65 95.439; 122.15 84.439; 87.65 81.939; 69.65 105.439; 69.65 105.439" keyTimes="0; 0.2; 0.433333; 0.666666; 0.85; 0.983333; 1" keySplines="0 0 1 1; 0 0 1 1; 0 0 1 1; 0 0 1 1; 0 0 1 1; 0 0 1 1" fill="freeze" /><g transform="scale(0.64,0.64) translate(-100,-100)"><g id="i1" transform="matrix(1,0,0,1,118.46,38.262)"><path fill="#f2cb0c" d="M3.343,-4.134C2.663,-3.287,1.91,-2.495,1.339,-1.607C1.444,-1.439,1.54,-1.45,1.626,-1.445C1.829,-1.435,2.031,-1.425,2.235,-1.426C4.982,-1.437,7.724,-1.214,10.472,-1.253C10.812,-1.258,11.193,-1.324,11.423,-0.954C11.186,-0.647,10.819,-0.648,10.5,-0.64C9.105,-0.602,7.705,-0.647,6.311,-0.583C4.583,-0.504,2.857,-0.38,1.154,-0.182C1.045,-0.004,1.161,0.093,1.243,0.193C1.886,0.975,2.497,1.784,3.3,2.42C3.604,2.66,3.854,2.951,3.952,3.342C4.001,3.534,3.885,3.612,3.737,3.547C3.534,3.457,3.346,3.325,3.168,3.188C2.455,2.637,1.766,2.061,1.102,1.45C0.905,1.269,0.697,0.917,0.381,1.071C0.105,1.206,0.25,1.562,0.247,1.817C0.23,3.595,0.062,5.363,-0.124,7.129C-0.136,7.241,-0.144,7.353,-0.143,7.466C-0.133,9.537,-0.379,11.602,-0.297,13.675C-0.292,13.809,-0.292,13.946,-0.306,14.079C-0.323,14.227,-0.296,14.437,-0.511,14.438C-0.683,14.438,-0.779,14.264,-0.81,14.112C-0.874,13.804,-0.946,13.49,-0.941,13.179C-0.912,11.359,-0.927,9.534,-0.8,7.72C-0.677,5.958,-0.779,4.218,-0.952,2.471C-0.992,2.069,-0.971,1.661,-0.993,1.256C-1.004,1.063,-0.943,0.844,-1.169,0.667C-2.265,1.4,-3.152,2.406,-4.232,3.17C-4.403,3.315,-4.586,3.446,-4.756,3.592C-4.756,3.592,-4.757,3.593,-4.757,3.593C-5.004,3.6,-4.984,3.475,-4.894,3.315C-4.852,3.267,-4.797,3.229,-4.779,3.163C-4.779,3.163,-4.781,3.163,-4.781,3.163C-4.67,3.115,-4.71,2.974,-4.624,2.91C-3.831,1.794,-2.884,0.8,-2.059,-0.248C-2.167,-0.516,-2.346,-0.451,-2.491,-0.454C-3.279,-0.47,-4.068,-0.476,-4.857,-0.486C-6.839,-0.511,-8.812,-0.653,-10.78,-0.889C-11.002,-0.916,-11.226,-0.934,-11.423,-1.081C-11.178,-1.318,-10.872,-1.271,-10.59,-1.273C-9.012,-1.281,-7.435,-1.278,-5.858,-1.272C-4.754,-1.268,-3.65,-1.276,-2.551,-1.388C-1.896,-1.455,-1.753,-1.726,-2.155,-2.26C-2.78,-3.088,-3.533,-3.804,-4.231,-4.569C-4.424,-4.779,-4.674,-4.95,-4.745,-5.245C-4.52,-5.428,-4.386,-5.266,-4.246,-5.17C-3.335,-4.543,-2.51,-3.809,-1.658,-3.109C-1.434,-2.924,-1.229,-2.714,-0.951,-2.6C-0.759,-2.701,-0.845,-2.879,-0.837,-3.02C-0.63,-6.236,-0.774,-9.457,-0.686,-12.675C-0.675,-13.105,-0.601,-13.525,-0.575,-13.951C-0.562,-14.168,-0.484,-14.342,-0.231,-14.438C0.072,-14.015,0.063,-13.501,0.074,-13.037C0.109,-11.687,0.28,-10.342,0.214,-8.99C0.176,-8.204,0.094,-7.418,0.137,-6.63C0.213,-5.245,0.302,-3.861,0.391,-2.407C0.904,-2.64,1.282,-2.941,1.645,-3.268C2.162,-3.735,2.679,-4.203,3.196,-4.671C3.258,-4.7,3.309,-4.744,3.347,-4.801C3.347,-4.801,3.345,-4.799,3.345,-4.799C3.399,-4.836,3.441,-4.884,3.488,-4.928C3.488,-4.928,3.489,-4.928,3.489,-4.928C3.78,-5.039,3.86,-4.938,3.76,-4.657C3.76,-4.657,3.76,-4.658,3.76,-4.658C3.71,-4.615,3.658,-4.574,3.635,-4.51C3.635,-4.51,3.639,-4.513,3.639,-4.513C3.504,-4.415,3.467,-4.24,3.343,-4.134Z" /></g></g></g></g><g id="i2"><g transform="translate(101.946,79.135)"><animateTransform repeatCount="indefinite" type="translate" attributeName="transform" dur="2.002s" begin="0s" calcMode="spline" values="101.946 79.135; 84.983 93.271; 109.956 97.512; 127.391 89.03; 137.286 77.25; 101.475 80.548; 101.475 80.548" keyTimes="0; 0.233333; 0.433333; 0.633333; 0.833333; 1; 1" keySplines="0 0 1 1; 0 0 1 1; 0 0 1 1; 0 0 1 1; 0 0 1 1; 0 0 1 1" fill="freeze" /><g transform="scale(0.6,0.6) translate(-100,-100)"><g id="i1" transform="matrix(1,0,0,1,88.537,46.35)"><path fill="#f2cb0c" d="M7.658,0.587C5.195,0.883,3.028,1.713,1.626,3.925C1.102,4.84,0.7,5.787,0.71,6.873C0.713,7.195,0.839,7.711,0.252,7.645C-0.071,7.608,0.022,7.116,-0.223,6.925C-0.475,5.022,-1.161,3.356,-2.66,2.054C-4.167,0.746,-6.163,1.077,-7.889,0.548C-7.706,-0.181,-7.204,-0.098,-6.803,-0.204C-5.841,-0.457,-4.928,-0.836,-4.014,-1.232C-1.503,-2.321,-0.108,-4.193,0.159,-6.91C0.383,-7.115,0.32,-7.592,0.615,-7.633C1.169,-7.711,1.106,-7.219,1.082,-6.89C1.015,-5.961,1.229,-5.106,1.655,-4.291C2.785,-1.91,4.674,-0.56,7.268,-0.17C7.491,0.034,7.889,0.149,7.658,0.587Z" /></g></g></g></g><g id="i3"><g transform="translate(91.9,123.939)"><animateTransform repeatCount="indefinite" type="translate" attributeName="transform" dur="2.002s" begin="0s" calcMode="spline" values="91.9 123.939; 105.858 116.362; 116.514 103.762; 87.547 103.62; 58.857 124.229; 93.256 122.434; 68.4 124.939; 90.65 112.939; 98.15 100.689" keyTimes="0; 0.183334; 0.45; 0.666666; 0.85; 0.999999; 1; 1; 1" keySplines="0 0 1 1; 0 0 1 1; 0 0 1 1; 0 0 1 1; 0 0 1 1; 0 0 1 1; 0 0 1 1; 0 0 1 1" fill="freeze" /><g transform="scale(1,1) translate(-100,-100)"><g id="i1" transform="matrix(1,0,0,1,118.46,38.262)"><path fill="#f2cb0c" d="M3.343,-4.134C2.663,-3.287,1.91,-2.495,1.339,-1.607C1.444,-1.439,1.54,-1.45,1.626,-1.445C1.829,-1.435,2.031,-1.425,2.235,-1.426C4.982,-1.437,7.724,-1.214,10.472,-1.253C10.812,-1.258,11.193,-1.324,11.423,-0.954C11.186,-0.647,10.819,-0.648,10.5,-0.64C9.105,-0.602,7.705,-0.647,6.311,-0.583C4.583,-0.504,2.857,-0.38,1.154,-0.182C1.045,-0.004,1.161,0.093,1.243,0.193C1.886,0.975,2.497,1.784,3.3,2.42C3.604,2.66,3.854,2.951,3.952,3.342C4.001,3.534,3.885,3.612,3.737,3.547C3.534,3.457,3.346,3.325,3.168,3.188C2.455,2.637,1.766,2.061,1.102,1.45C0.905,1.269,0.697,0.917,0.381,1.071C0.105,1.206,0.25,1.562,0.247,1.817C0.23,3.595,0.062,5.363,-0.124,7.129C-0.136,7.241,-0.144,7.353,-0.143,7.466C-0.133,9.537,-0.379,11.602,-0.297,13.675C-0.292,13.809,-0.292,13.946,-0.306,14.079C-0.323,14.227,-0.296,14.437,-0.511,14.438C-0.683,14.438,-0.779,14.264,-0.81,14.112C-0.874,13.804,-0.946,13.49,-0.941,13.179C-0.912,11.359,-0.927,9.534,-0.8,7.72C-0.677,5.958,-0.779,4.218,-0.952,2.471C-0.992,2.069,-0.971,1.661,-0.993,1.256C-1.004,1.063,-0.943,0.844,-1.169,0.667C-2.265,1.4,-3.152,2.406,-4.232,3.17C-4.403,3.315,-4.586,3.446,-4.756,3.592C-4.756,3.592,-4.757,3.593,-4.757,3.593C-5.004,3.6,-4.984,3.475,-4.894,3.315C-4.852,3.267,-4.797,3.229,-4.779,3.163C-4.779,3.163,-4.781,3.163,-4.781,3.163C-4.67,3.115,-4.71,2.974,-4.624,2.91C-3.831,1.794,-2.884,0.8,-2.059,-0.248C-2.167,-0.516,-2.346,-0.451,-2.491,-0.454C-3.279,-0.47,-4.068,-0.476,-4.857,-0.486C-6.839,-0.511,-8.812,-0.653,-10.78,-0.889C-11.002,-0.916,-11.226,-0.934,-11.423,-1.081C-11.178,-1.318,-10.872,-1.271,-10.59,-1.273C-9.012,-1.281,-7.435,-1.278,-5.858,-1.272C-4.754,-1.268,-3.65,-1.276,-2.551,-1.388C-1.896,-1.455,-1.753,-1.726,-2.155,-2.26C-2.78,-3.088,-3.533,-3.804,-4.231,-4.569C-4.424,-4.779,-4.674,-4.95,-4.745,-5.245C-4.52,-5.428,-4.386,-5.266,-4.246,-5.17C-3.335,-4.543,-2.51,-3.809,-1.658,-3.109C-1.434,-2.924,-1.229,-2.714,-0.951,-2.6C-0.759,-2.701,-0.845,-2.879,-0.837,-3.02C-0.63,-6.236,-0.774,-9.457,-0.686,-12.675C-0.675,-13.105,-0.601,-13.525,-0.575,-13.951C-0.562,-14.168,-0.484,-14.342,-0.231,-14.438C0.072,-14.015,0.063,-13.501,0.074,-13.037C0.109,-11.687,0.28,-10.342,0.214,-8.99C0.176,-8.204,0.094,-7.418,0.137,-6.63C0.213,-5.245,0.302,-3.861,0.391,-2.407C0.904,-2.64,1.282,-2.941,1.645,-3.268C2.162,-3.735,2.679,-4.203,3.196,-4.671C3.258,-4.7,3.309,-4.744,3.347,-4.801C3.347,-4.801,3.345,-4.799,3.345,-4.799C3.399,-4.836,3.441,-4.884,3.488,-4.928C3.488,-4.928,3.489,-4.928,3.489,-4.928C3.78,-5.039,3.86,-4.938,3.76,-4.657C3.76,-4.657,3.76,-4.658,3.76,-4.658C3.71,-4.615,3.658,-4.574,3.635,-4.51C3.635,-4.51,3.639,-4.513,3.639,-4.513C3.504,-4.415,3.467,-4.24,3.343,-4.134Z" /></g></g></g></g><g id="i4"><g transform="translate(129,120.875)"><animateTransform repeatCount="indefinite" type="translate" attributeName="transform" dur="2.002s" begin="0s" calcMode="spline" values="129 120.875; 152 115; 154.5 102.5; 131.5 101.5; 109.5 115; 99 128.5; 131.5 126.5; 131.5 126.5" keyTimes="0; 0.166667; 0.333333; 0.516667; 0.683333; 0.85; 1; 1" keySplines="0 0 1 1; 0 0 1 1; 0 0 1 1; 0 0 1 1; 0 0 1 1; 0 0 1 1; 0 0 1 1" fill="freeze" /><g transform="rotate(-21.446) scale(0.732,0.732) translate(-100,-100)"><g id="i1" transform="matrix(1,0,0,1,105.145,101.021)"><path fill="#2d1c15" d="M9.402,86.857C9.348,86.777,9.27,86.659,9.173,86.503C9.123,86.426,9.069,86.34,9.01,86.245C8.749,85.821,8.397,85.217,8.007,84.475C7.918,84.303,7.826,84.124,7.732,83.936C7.64,83.753,7.548,83.565,7.455,83.369C7.381,83.213,7.306,83.055,7.232,82.892C6.339,80.945,5.417,78.43,4.944,75.628C4.881,75.256,4.827,74.879,4.781,74.498C4.568,72.721,4.551,70.85,4.847,68.952C4.999,67.985,5.23,67.01,5.558,66.038C9.054,55.667,4.835,57.988,8.721,53.313C8.721,53.313,5.16,51.153,5.47,31.626C5.781,12.098,3.057,11.509,3.465,8.705C3.875,5.901,4.495,1.593,1.804,-1.743C-0.886,-5.079,-0.867,-95.805,-0.867,-95.805C-0.867,-95.805,-1.858,-94.951,-1.858,-94.951C-1.858,-94.951,-2.975,-93.986,-2.975,-93.986C-2.975,-93.986,-5.168,-11.08,-4.758,-4.267C-4.731,-3.825,-4.718,-3.419,-4.714,-3.044C-4.714,-3.044,-4.714,-3.045,-4.714,-3.045C-4.658,2.352,-6.76,1.077,-5.291,2.984C-3.72,5.023,-6.662,5.11,-6.3,7.06C-6.265,7.247,-6.204,7.595,-6.129,8.111C-6.129,8.11,-6.129,8.109,-6.13,8.109C-6.09,8.381,-6.046,8.703,-5.999,9.07C-5.999,9.07,-5.999,9.07,-5.999,9.07C-5.953,9.433,-5.905,9.845,-5.856,10.303C-5.855,10.313,-5.853,10.323,-5.852,10.334C-5.778,11.024,-5.703,11.824,-5.631,12.734C-5.63,12.744,-5.629,12.754,-5.628,12.764C-5.021,20.454,-4.672,36.037,-7.802,61.44C-7.802,61.439,-7.801,61.438,-7.801,61.437C-8.157,64.324,-8.558,67.339,-9.008,70.483C-9.008,70.483,-9.01,70.483,-9.01,70.483C-9.164,71.557,-9.319,72.634,-9.484,73.739C-9.484,73.739,-9.438,73.819,-9.354,73.968C-9.326,74.018,-9.294,74.076,-9.258,74.139C-9.209,74.227,-9.151,74.332,-9.088,74.444C-9.013,74.581,-8.931,74.729,-8.839,74.898C-8.784,75.001,-8.725,75.109,-8.663,75.222C-8.357,75.791,-7.989,76.49,-7.601,77.26C-7.471,77.517,-7.339,77.784,-7.207,78.055C-7.155,78.162,-7.102,78.27,-7.05,78.378C-6.942,78.601,-6.835,78.827,-6.728,79.055C-6.666,79.188,-6.605,79.321,-6.543,79.455C-6.459,79.64,-6.375,79.826,-6.292,80.012C-6.224,80.165,-6.158,80.317,-6.093,80.468C-5.162,82.627,-4.446,84.761,-4.612,85.941C-4.612,85.941,-3.797,86.885,-3.797,86.885C-3.797,86.885,-3.773,86.914,-3.773,86.914C-3.773,86.914,-3.774,86.913,-3.774,86.913C-3.774,86.913,-3.593,87.121,-3.593,87.121C-3.593,87.121,-3.213,87.562,-3.213,87.562C-3.213,87.562,0.129,95.805,0.129,95.805C0.129,95.805,0.195,95.787,0.321,95.739C0.383,95.714,0.462,95.684,0.553,95.644C0.646,95.604,0.752,95.556,0.871,95.498C2.244,94.831,5.372,92.867,9.007,87.673C9.166,87.448,9.324,87.216,9.484,86.978C9.484,86.978,9.455,86.937,9.402,86.857Z" /></g></g></g></g></svg>